<svg width="33" height="33" viewBox="0 0 33 33" fill="none" xmlns="http://www.w3.org/2000/svg">
<path d="M22.0094 32.5613L11.1557 28.7625L2.74398 32.0186C2.14099 32.2598 1.58323 32.1923 1.07069 31.816C0.558149 31.4398 0.30188 30.9345 0.30188 30.3001V4.97465C0.30188 4.5827 0.415241 4.23599 0.641965 3.93449C0.868688 3.633 1.17742 3.40688 1.56815 3.25613L11.1557 0L22.0094 3.79882L30.4211 0.542689C31.0241 0.301494 31.5819 0.369631 32.0944 0.747102C32.6069 1.12457 32.8632 1.62927 32.8632 2.2612V27.5867C32.8632 27.9786 32.7504 28.3253 32.5249 28.6268C32.2994 28.9283 31.9901 29.1544 31.5969 29.3052L22.0094 32.5613ZM20.2005 28.1294V6.9645L12.9646 4.43196V25.5968L20.2005 28.1294Z" fill="#285943"/>
</svg>
