<svg width="40" height="40" viewBox="0 0 40 40" fill="none" xmlns="http://www.w3.org/2000/svg">
<path d="M20 18.3333C24.1667 18.3333 27.7083 17.6806 30.625 16.375C33.5417 15.0694 35 13.5 35 11.6667C35 9.83333 33.5417 8.26389 30.625 6.95833C27.7083 5.65278 24.1667 5 20 5C15.8333 5 12.2917 5.65278 9.375 6.95833C6.45833 8.26389 5 9.83333 5 11.6667C5 13.5 6.45833 15.0694 9.375 16.375C12.2917 17.6806 15.8333 18.3333 20 18.3333ZM20 22.5C21.1389 22.5 22.5628 22.3817 24.2717 22.145C25.9806 21.9083 27.6261 21.5267 29.2083 21C30.7906 20.4733 32.1517 19.7861 33.2917 18.9383C34.4317 18.0906 35.0011 17.0556 35 15.8333V20C35 21.2222 34.4306 22.2572 33.2917 23.105C32.1528 23.9528 30.7917 24.64 29.2083 25.1667C27.625 25.6933 25.9794 26.0756 24.2717 26.3133C22.5639 26.5511 21.14 26.6689 20 26.6667C18.86 26.6644 17.4367 26.5461 15.73 26.3117C14.0233 26.0772 12.3772 25.6956 10.7917 25.1667C9.20611 24.6378 7.845 23.9506 6.70833 23.105C5.57167 22.2594 5.00222 21.2244 5 20V15.8333C5 17.0556 5.56944 18.0906 6.70833 18.9383C7.84722 19.7861 9.20833 20.4733 10.7917 21C12.375 21.5267 14.0211 21.9089 15.73 22.1467C17.4389 22.3844 18.8622 22.5022 20 22.5ZM20 30.8333C21.1389 30.8333 22.5628 30.715 24.2717 30.4783C25.9806 30.2417 27.6261 29.86 29.2083 29.3333C30.7906 28.8067 32.1517 28.1194 33.2917 27.2717C34.4317 26.4239 35.0011 25.3889 35 24.1667V28.3333C35 29.5556 34.4306 30.5906 33.2917 31.4383C32.1528 32.2861 30.7917 32.9733 29.2083 33.5C27.625 34.0267 25.9794 34.4089 24.2717 34.6467C22.5639 34.8844 21.14 35.0022 20 35C18.86 34.9978 17.4367 34.8794 15.73 34.645C14.0233 34.4106 12.3772 34.0289 10.7917 33.5C9.20611 32.9711 7.845 32.2839 6.70833 31.4383C5.57167 30.5928 5.00222 29.5578 5 28.3333V24.1667C5 25.3889 5.56944 26.4239 6.70833 27.2717C7.84722 28.1194 9.20833 28.8067 10.7917 29.3333C12.375 29.86 14.0211 30.2422 15.73 30.48C17.4389 30.7178 18.8622 30.8356 20 30.8333Z" fill="black"/>
</svg>
