<svg version="1.1" id="Layer_1" xmlns="http://www.w3.org/2000/svg" xmlns:xlink="http://www.w3.org/1999/xlink" x="0px" y="0px"
	 width="100%" viewBox="0 0 500 500" enable-background="new 0 0 500 500" xml:space="preserve">
<path fill="#FFFFFF" opacity="1.000000" stroke="none" 
	d="
M278.000000,501.000000 
	C185.333359,501.000000 93.166710,501.000000 1.000049,501.000000 
	C1.000033,334.333405 1.000033,167.666794 1.000016,1.000139 
	C167.666565,1.000093 334.333130,1.000093 500.999756,1.000046 
	C500.999847,167.666519 500.999847,334.333038 500.999939,500.999786 
	C426.833344,501.000000 352.666656,501.000000 278.000000,501.000000 
M111.782707,448.853394 
	C129.381866,460.728851 147.974304,470.651672 167.992081,477.871521 
	C188.608490,485.307281 209.829712,490.416962 231.642715,491.644409 
	C255.481186,492.985901 279.356598,492.461395 302.858612,486.903870 
	C324.993561,481.669617 346.364105,474.509186 366.204529,463.231781 
	C374.511047,458.510254 382.687012,453.558960 390.969421,449.684509 
	C390.979614,461.850708 391.171753,474.020874 390.904388,486.180969 
	C390.806732,490.620605 391.856750,492.152161 396.633392,492.115723 
	C426.630005,491.886902 456.629181,492.001129 486.627533,491.999115 
	C492.995209,491.998718 492.999359,491.993500 492.999390,485.423126 
	C493.000183,328.431793 493.000183,171.440445 492.999237,14.449103 
	C492.999207,8.005569 492.994110,8.000849 486.499756,8.000813 
	C329.508423,7.999926 172.517059,7.999933 15.525722,8.000786 
	C9.006199,8.000821 9.000978,8.005355 9.000906,14.423640 
	C8.999782,114.084816 9.000110,213.745987 9.000117,313.407166 
	C9.000121,371.070648 9.041898,428.734222 8.913803,486.397430 
	C8.904456,490.604919 9.728806,492.144440 14.347870,492.111694 
	C44.844654,491.895447 75.344177,491.918304 105.841492,492.093689 
	C110.095634,492.118134 111.158623,490.777832 111.088799,486.706940 
	C110.871643,474.045624 111.051361,461.377441 111.782707,448.853394 
z"/>
<path fill="#DBE4FD" opacity="1.000000" stroke="none" 
	d="
M111.077133,448.711945 
	C111.051361,461.377441 110.871643,474.045624 111.088799,486.706940 
	C111.158623,490.777832 110.095634,492.118134 105.841492,492.093689 
	C75.344177,491.918304 44.844654,491.895447 14.347870,492.111694 
	C9.728806,492.144440 8.904456,490.604919 8.913803,486.397430 
	C9.041898,428.734222 9.000121,371.070648 9.000117,313.407166 
	C9.000110,213.745987 8.999782,114.084816 9.000906,14.423640 
	C9.000978,8.005355 9.006199,8.000821 15.525722,8.000786 
	C172.517059,7.999933 329.508423,7.999926 486.499756,8.000813 
	C492.994110,8.000849 492.999207,8.005569 492.999237,14.449103 
	C493.000183,171.440445 493.000183,328.431793 492.999390,485.423126 
	C492.999359,491.993500 492.995209,491.998718 486.627533,491.999115 
	C456.629181,492.001129 426.630005,491.886902 396.633392,492.115723 
	C391.856750,492.152161 390.806732,490.620605 390.904388,486.180969 
	C391.171753,474.020874 390.979614,461.850708 390.937469,448.756653 
	C391.190948,429.098053 388.594879,410.701569 383.905548,392.632416 
	C373.372986,352.047394 353.981506,316.859131 319.715851,291.432495 
	C294.339172,272.601898 265.738800,264.337555 234.181885,269.291077 
	C202.271652,274.300079 176.766922,291.057220 156.571884,315.519775 
	C124.761208,354.052582 111.522026,399.284210 111.077133,448.711945 
M329.939270,190.326736 
	C333.457672,177.610321 333.993591,164.793503 331.418518,151.828735 
	C324.626709,117.634171 295.780060,90.674431 261.177185,86.723373 
	C234.377792,83.663338 211.107132,91.463356 192.596054,110.594063 
	C166.055405,138.023148 161.763748,174.497406 179.593063,208.240067 
	C195.481003,238.308594 233.709717,255.997864 266.941223,248.451935 
	C298.677124,241.245605 319.505280,221.933151 329.939270,190.326736 
z"/>
<path fill="#8193C7" opacity="1.000000" stroke="none" 
	d="
M111.429916,448.782654 
	C111.522026,399.284210 124.761208,354.052582 156.571884,315.519775 
	C176.766922,291.057220 202.271652,274.300079 234.181885,269.291077 
	C265.738800,264.337555 294.339172,272.601898 319.715851,291.432495 
	C353.981506,316.859131 373.372986,352.047394 383.905548,392.632416 
	C388.594879,410.701569 391.190948,429.098053 390.913940,448.270447 
	C382.687012,453.558960 374.511047,458.510254 366.204529,463.231781 
	C346.364105,474.509186 324.993561,481.669617 302.858612,486.903870 
	C279.356598,492.461395 255.481186,492.985901 231.642715,491.644409 
	C209.829712,490.416962 188.608490,485.307281 167.992081,477.871521 
	C147.974304,470.651672 129.381866,460.728851 111.429916,448.782654 
z"/>
<path fill="#8193C7" opacity="1.000000" stroke="none" 
	d="
M329.852905,190.722519 
	C319.505280,221.933151 298.677124,241.245605 266.941223,248.451935 
	C233.709717,255.997864 195.481003,238.308594 179.593063,208.240067 
	C161.763748,174.497406 166.055405,138.023148 192.596054,110.594063 
	C211.107132,91.463356 234.377792,83.663338 261.177185,86.723373 
	C295.780060,90.674431 324.626709,117.634171 331.418518,151.828735 
	C333.993591,164.793503 333.457672,177.610321 329.852905,190.722519 
z"/>
</svg>